<svg xmlns="http://www.w3.org/2000/svg" viewBox="0 0 800 400">
  <rect width="800" height="400" fill="#241a2e"/>
  <rect x="470" y="60" width="240" height="170" rx="12" fill="#101540"/>
  <rect x="470" y="60" width="240" height="170" rx="12" fill="none" stroke="#3a2c47" stroke-width="10"/>
  <g fill="#ffd76a" opacity="0.85">
    <circle cx="520" cy="150" r="4"/><circle cx="560" cy="130" r="3"/><circle cx="610" cy="160" r="4"/>
    <circle cx="660" cy="120" r="3"/><circle cx="690" cy="170" r="3"/>
  </g>
  <rect x="440" y="230" width="300" height="20" rx="8" fill="#4a3358"/>
  <g>
    <circle cx="250" cy="140" r="46" fill="#33243f"/>
    <path d="M204 140 q0 -60 46 -60 q46 0 46 60 l0 30 q-20 14 -46 14 q-26 0 -46 -14 z" fill="#1c1226"/>
    <path d="M170 330 q10 -110 80 -110 q70 0 80 110 z" fill="#33243f"/>
  </g>
  <g>
    <rect x="580" y="250" width="14" height="80" fill="#6b5a3a"/>
    <path d="M550 250 h74 l-14 -34 h-46 z" fill="#ffd76a"/>
    <ellipse cx="587" cy="338" rx="46" ry="10" fill="#171021"/>
    <circle cx="587" cy="216" r="8" fill="#fff3c4"/>
  </g>
  <rect x="0" y="330" width="800" height="70" fill="#171021"/>
  <text x="400" y="376" text-anchor="middle" font-family="monospace" font-size="18" fill="#7a6b8a" letter-spacing="6">КУПЕ 3 · 05:20</text>
</svg>
