<svg xmlns="http://www.w3.org/2000/svg" viewBox="0 0 800 400">
  <rect width="800" height="400" fill="#0b1035"/>
  <circle cx="660" cy="70" r="34" fill="#f5f3ce"/>
  <circle cx="646" cy="60" r="30" fill="#0b1035"/>
  <g fill="#f5f3ce" opacity="0.8">
    <circle cx="90" cy="50" r="2"/><circle cx="180" cy="90" r="2"/><circle cx="300" cy="40" r="2"/>
    <circle cx="420" cy="80" r="2"/><circle cx="520" cy="35" r="2"/><circle cx="740" cy="140" r="2"/>
    <circle cx="60" cy="130" r="2"/><circle cx="360" cy="120" r="2"/>
  </g>
  <rect x="0" y="300" width="800" height="100" fill="#151b4d"/>
  <rect x="0" y="296" width="800" height="8" fill="#232a66"/>
  <g>
    <rect x="60" y="120" width="10" height="180" fill="#232a66"/>
    <rect x="40" y="112" width="50" height="12" rx="6" fill="#232a66"/>
    <circle cx="65" cy="106" r="12" fill="#ffd76a"/>
    <rect x="700" y="120" width="10" height="180" fill="#232a66"/>
    <rect x="680" y="112" width="50" height="12" rx="6" fill="#232a66"/>
    <circle cx="705" cy="106" r="12" fill="#ffd76a"/>
  </g>
  <g>
    <rect x="120" y="180" width="560" height="120" rx="18" fill="#2e7d32"/>
    <rect x="120" y="180" width="560" height="34" rx="17" fill="#43a047"/>
    <rect x="120" y="286" width="560" height="14" fill="#1b5e20"/>
    <g fill="#ffd76a">
      <rect x="150" y="224" width="46" height="34" rx="6"/>
      <rect x="220" y="224" width="46" height="34" rx="6"/>
      <rect x="290" y="224" width="46" height="34" rx="6"/>
      <rect x="360" y="224" width="46" height="34" rx="6"/>
      <rect x="430" y="224" width="46" height="34" rx="6"/>
      <rect x="500" y="224" width="46" height="34" rx="6"/>
      <rect x="570" y="224" width="46" height="34" rx="6"/>
    </g>
    <circle cx="180" cy="310" r="16" fill="#101540"/>
    <circle cx="180" cy="310" r="7" fill="#39406e"/>
    <circle cx="400" cy="310" r="16" fill="#101540"/>
    <circle cx="400" cy="310" r="7" fill="#39406e"/>
    <circle cx="620" cy="310" r="16" fill="#101540"/>
    <circle cx="620" cy="310" r="7" fill="#39406e"/>
  </g>
  <text x="400" y="160" text-anchor="middle" font-family="monospace" font-size="26" fill="#8890b5" letter-spacing="6">ЭКСПРЕСС № 13</text>
</svg>
